<mxfile host="app.diagrams.net" agent="Mozilla/5.0 (Macintosh; Intel Mac OS X 10_15_7) AppleWebKit/537.36 (KHTML, like Gecko) Chrome/130.0.0.0 Safari/537.36" version="24.7.4">
  <diagram name="Page-1" id="zhf6FwcNSWEPF1Oosigu">
    <mxGraphModel dx="1026" dy="772" grid="1" gridSize="10" guides="1" tooltips="1" connect="1" arrows="1" fold="1" page="1" pageScale="1" pageWidth="1169" pageHeight="827" math="0" shadow="0">
      <root>
        <mxCell id="0" />
        <mxCell id="1" parent="0" />
        <mxCell id="m3Wz60BFMDpkHn_s_SLP-9" style="edgeStyle=orthogonalEdgeStyle;rounded=0;orthogonalLoop=1;jettySize=auto;html=1;entryX=0.5;entryY=0;entryDx=0;entryDy=0;" edge="1" parent="1" source="m3Wz60BFMDpkHn_s_SLP-1" target="m3Wz60BFMDpkHn_s_SLP-6">
          <mxGeometry relative="1" as="geometry" />
        </mxCell>
        <mxCell id="m3Wz60BFMDpkHn_s_SLP-1" value="Evaluate Model" style="rounded=0;whiteSpace=wrap;html=1;" vertex="1" parent="1">
          <mxGeometry x="460" y="400" width="120" height="60" as="geometry" />
        </mxCell>
        <mxCell id="m3Wz60BFMDpkHn_s_SLP-11" value="Yes" style="edgeStyle=orthogonalEdgeStyle;rounded=0;orthogonalLoop=1;jettySize=auto;html=1;entryX=1;entryY=0.5;entryDx=0;entryDy=0;" edge="1" parent="1" source="m3Wz60BFMDpkHn_s_SLP-6" target="m3Wz60BFMDpkHn_s_SLP-10">
          <mxGeometry relative="1" as="geometry" />
        </mxCell>
        <mxCell id="m3Wz60BFMDpkHn_s_SLP-17" value="No" style="edgeStyle=orthogonalEdgeStyle;rounded=0;orthogonalLoop=1;jettySize=auto;html=1;entryX=0;entryY=0.5;entryDx=0;entryDy=0;" edge="1" parent="1" source="m3Wz60BFMDpkHn_s_SLP-6" target="m3Wz60BFMDpkHn_s_SLP-16">
          <mxGeometry relative="1" as="geometry" />
        </mxCell>
        <mxCell id="m3Wz60BFMDpkHn_s_SLP-6" value="Is Another Training Language Available" style="ellipse;whiteSpace=wrap;html=1;" vertex="1" parent="1">
          <mxGeometry x="460" y="540" width="120" height="80" as="geometry" />
        </mxCell>
        <mxCell id="m3Wz60BFMDpkHn_s_SLP-7" value="" style="endArrow=classic;html=1;rounded=0;entryX=0.5;entryY=0;entryDx=0;entryDy=0;" edge="1" parent="1" target="m3Wz60BFMDpkHn_s_SLP-1">
          <mxGeometry width="50" height="50" relative="1" as="geometry">
            <mxPoint x="520" y="320" as="sourcePoint" />
            <mxPoint x="550" y="440" as="targetPoint" />
          </mxGeometry>
        </mxCell>
        <mxCell id="m3Wz60BFMDpkHn_s_SLP-12" style="edgeStyle=orthogonalEdgeStyle;rounded=0;orthogonalLoop=1;jettySize=auto;html=1;entryX=0;entryY=0.5;entryDx=0;entryDy=0;" edge="1" parent="1" source="m3Wz60BFMDpkHn_s_SLP-10" target="m3Wz60BFMDpkHn_s_SLP-1">
          <mxGeometry relative="1" as="geometry">
            <mxPoint x="390" y="430" as="targetPoint" />
            <Array as="points">
              <mxPoint x="320" y="430" />
            </Array>
          </mxGeometry>
        </mxCell>
        <mxCell id="m3Wz60BFMDpkHn_s_SLP-10" value="Train On Next Language" style="rounded=0;whiteSpace=wrap;html=1;" vertex="1" parent="1">
          <mxGeometry x="260" y="550" width="120" height="60" as="geometry" />
        </mxCell>
        <mxCell id="m3Wz60BFMDpkHn_s_SLP-14" value="Start" style="rounded=1;whiteSpace=wrap;html=1;" vertex="1" parent="1">
          <mxGeometry x="460" y="260" width="120" height="60" as="geometry" />
        </mxCell>
        <mxCell id="m3Wz60BFMDpkHn_s_SLP-16" value="End" style="rounded=1;whiteSpace=wrap;html=1;" vertex="1" parent="1">
          <mxGeometry x="660" y="550" width="120" height="60" as="geometry" />
        </mxCell>
      </root>
    </mxGraphModel>
  </diagram>
</mxfile>
